<svg width="28" height="24" viewBox="0 0 28 24" fill="none"
    xmlns="http://www.w3.org/2000/svg">
    <path d="M8.16667 13L3.5 9L8.16667 5" stroke="#14181F" stroke-opacity="0.92" stroke-width="2" stroke-linecap="round" stroke-linejoin="round"/>
    <path d="M12.8333 18C12.281 18 11.8333 18.4477 11.8333 19C11.8333 19.5523 12.281 20 12.8333 20V18ZM3.5 8C2.94772 8 2.5 8.44772 2.5 9C2.5 9.55228 2.94772 10 3.5 10V8ZM12.8333 20H18.6667V18H12.8333V20ZM18.6667 8H3.5V10H18.6667V8ZM25.5 14C25.5 10.5472 22.2904 8 18.6667 8V10C21.4862 10 23.5 11.9299 23.5 14H25.5ZM18.6667 20C22.2904 20 25.5 17.4528 25.5 14H23.5C23.5 16.0701 21.4862 18 18.6667 18V20Z" fill="#14181F" fill-opacity="0.92"/>
</svg>
