<svg width="18" height="19" viewBox="0 0 18 19" fill="none"
    xmlns="http://www.w3.org/2000/svg">
    <path d="M13.4321 1.09172C12.8067 0.466401 11.7476 0.670374 11.3992 1.4832L9.63986 5.58844C8.19438 5.16016 6.56519 5.51621 5.42358 6.65782L4.06704 8.01436C3.77414 8.30726 3.77414 8.78213 4.06704 9.07502L6.20881 11.2168L0.469609 16.956C0.176716 17.2489 0.176716 17.7237 0.469609 18.0166C0.762501 18.3095 1.23738 18.3095 1.53027 18.0166L7.26947 12.2775L9.41129 14.4193C9.70418 14.7122 10.1791 14.7122 10.4719 14.4193L11.8285 13.0627C12.9701 11.9211 13.3262 10.2919 12.8979 8.84644L17.0031 7.08705C17.8159 6.7387 18.0199 5.67955 17.3946 5.05424L13.4321 1.09172Z" fill="#D0D3DB"/>
</svg>
