<svg width="20" height="21" viewBox="0 0 20 21" fill="none"
    xmlns="http://www.w3.org/2000/svg">
    <g clip-path="url(#clip0_171_286)">
        <path d="M17.4999 10.5C17.4997 10.0172 17.4579 9.53547 17.3749 9.06063L19.9108 7.525L17.4108 2.975L14.8741 4.51412C14.1737 3.88493 13.3689 3.39669 12.4999 3.07387V0H7.49994V3.07387C6.63099 3.39669 5.82616 3.88493 5.12578 4.51412L2.58911 2.975L0.0891113 7.525L2.62494 9.06063C2.45837 10.0122 2.45837 10.9878 2.62494 11.9394L0.0891113 13.475L2.58911 18.025L5.12578 16.4867C5.82622 17.1156 6.63105 17.6036 7.49994 17.9261V21H12.4999V17.9261C13.3689 17.6033 14.1737 17.1151 14.8741 16.4859L17.4108 18.025L19.9108 13.475L17.3749 11.9394C17.4579 11.4645 17.4997 10.9828 17.4999 10.5ZM12.4999 10.5C12.4999 11.0192 12.3533 11.5267 12.0786 11.9584C11.8039 12.3901 11.4135 12.7265 10.9567 12.9252C10.4998 13.1239 9.99717 13.1758 9.51222 13.0746C9.02727 12.9733 8.58181 12.7233 8.23218 12.3562C7.88255 11.989 7.64444 11.5213 7.54798 11.0121C7.45152 10.5029 7.50103 9.97511 7.69025 9.49546C7.87946 9.0158 8.1999 8.60583 8.61102 8.31739C9.02214 8.02895 9.50549 7.875 9.99994 7.875C10.663 7.875 11.2989 8.15156 11.7677 8.64384C12.2366 9.13613 12.4999 9.80381 12.4999 10.5Z" fill="#D0D3DB"/>
    </g>
    <defs>
        <clipPath id="clip0_171_286">
            <rect width="20" height="21" fill="white"/>
        </clipPath>
    </defs>
</svg>
