<svg width="22" height="17" viewBox="0 0 22 17" fill="none"
    xmlns="http://www.w3.org/2000/svg">
    <path d="M10.949 10.5531C7.49903 10.5531 4.58807 11.1168 4.58807 13.2926C4.58807 15.4692 7.51783 16.0132 10.949 16.0132C14.399 16.0132 17.31 15.4494 17.31 13.2737C17.31 11.097 14.3802 10.5531 10.949 10.5531Z" fill="#8A92A6"/>
    <path opacity="0.4" d="M10.949 8.48021C13.2851 8.48021 15.1583 6.59625 15.1583 4.2467C15.1583 1.89625 13.2851 0.0131836 10.949 0.0131836C8.61293 0.0131836 6.73975 1.89625 6.73975 4.2467C6.73975 6.59625 8.61293 8.48021 10.949 8.48021Z" fill="#8A92A6"/>
    <path opacity="0.4" d="M20.0879 5.23244C20.6923 2.85498 18.9203 0.719757 16.6639 0.719757C16.4186 0.719757 16.184 0.746774 15.9548 0.792702C15.9243 0.799907 15.8903 0.815216 15.8724 0.842233C15.8518 0.876454 15.867 0.922382 15.8894 0.952101C16.5672 1.90849 16.9567 3.07291 16.9567 4.32288C16.9567 5.52062 16.5995 6.63731 15.9727 7.56398C15.9082 7.65944 15.9655 7.78822 16.0792 7.80803C16.2368 7.83595 16.398 7.85036 16.5627 7.85486C18.2058 7.89809 19.6805 6.83453 20.0879 5.23244Z" fill="#8A92A6"/>
    <path d="M21.8093 10.8301C21.5084 10.1853 20.7823 9.74314 19.6782 9.52611C19.1571 9.39823 17.7468 9.21812 16.4351 9.24243C16.4154 9.24513 16.4046 9.25864 16.4028 9.26765C16.4002 9.28025 16.4055 9.30187 16.4315 9.31538C17.0377 9.61706 19.381 10.9292 19.0864 13.6966C19.0738 13.8164 19.1696 13.9199 19.2887 13.9019C19.8654 13.8191 21.349 13.4985 21.8093 12.4997C22.0636 11.972 22.0636 11.3587 21.8093 10.8301Z" fill="#8A92A6"/>
    <path opacity="0.4" d="M6.04483 0.792977C5.8165 0.746148 5.58101 0.720032 5.33567 0.720032C3.07926 0.720032 1.30726 2.85525 1.91255 5.23272C2.31906 6.83481 3.79379 7.89836 5.43685 7.85514C5.60161 7.85064 5.76368 7.83533 5.92037 7.80831C6.03409 7.7885 6.09139 7.65972 6.02692 7.56426C5.40014 6.63669 5.04288 5.5209 5.04288 4.32316C5.04288 3.07228 5.43327 1.90787 6.11109 0.952375C6.13258 0.922657 6.1487 0.876729 6.12721 0.842507C6.1093 0.81459 6.07617 0.800181 6.04483 0.792977Z" fill="#8A92A6"/>
    <path d="M2.32156 9.52585C1.21752 9.74289 0.492248 10.1851 0.191392 10.8299C-0.0637974 11.3585 -0.0637974 11.9718 0.191392 12.5004C0.651629 13.4982 2.13531 13.8197 2.71195 13.9017C2.83104 13.9197 2.92595 13.817 2.91342 13.6963C2.61883 10.9298 4.9621 9.61771 5.56918 9.31602C5.59425 9.30161 5.59962 9.2809 5.59694 9.26739C5.59515 9.25839 5.5853 9.24488 5.5656 9.24308C4.25294 9.21786 2.84358 9.39797 2.32156 9.52585Z" fill="#8A92A6"/>
</svg>
